<svg width="800" height="400" xmlns="http://www.w3.org/2000/svg">
  <rect width="100%" height="100%" fill="#f0f2f5"/>
  <rect x="20" y="20" width="760" height="60" rx="8" fill="#ffffff" stroke="#ccc" stroke-width="1"/>
  <text x="400" y="55" font-family="Arial" font-size="24" text-anchor="middle" fill="#333">Directorio de Clientes</text>
  
  <!-- Header row -->
  <rect x="20" y="100" width="760" height="40" rx="4" fill="#e0e0e0" stroke="#ccc" stroke-width="1"/>
  <text x="50" y="125" font-family="Arial" font-size="14" fill="#333">Nombre</text>
  <text x="250" y="125" font-family="Arial" font-size="14" fill="#333">Teléfono</text>
  <text x="450" y="125" font-family="Arial" font-size="14" fill="#333">Email</text>
  <text x="650" y="125" font-family="Arial" font-size="14" fill="#333">Acciones</text>

  <!-- Client 1 -->
  <rect x="20" y="150" width="760" height="40" rx="4" fill="#ffffff" stroke="#eee" stroke-width="1"/>
  <circle cx="35" cy="170" r="10" fill="#ddd"/>
  <text x="55" y="175" font-family="Arial" font-size="14" fill="#666">Juan Pérez</text>
  <text x="250" y="175" font-family="Arial" font-size="14" fill="#666">+57 300 123 4567</text>
  <text x="450" y="175" font-family="Arial" font-size="14" fill="#666">juan@email.com</text>
  
  <!-- Client 2 -->
  <rect x="20" y="200" width="760" height="40" rx="4" fill="#ffffff" stroke="#eee" stroke-width="1"/>
  <circle cx="35" cy="220" r="10" fill="#ddd"/>
  <text x="55" y="225" font-family="Arial" font-size="14" fill="#666">María Garcia</text>
  <text x="250" y="225" font-family="Arial" font-size="14" fill="#666">+57 310 987 6543</text>
  <text x="450" y="225" font-family="Arial" font-size="14" fill="#666">maria@email.com</text>

  <!-- Client 3 -->
  <rect x="20" y="250" width="760" height="40" rx="4" fill="#ffffff" stroke="#eee" stroke-width="1"/>
  <circle cx="35" cy="270" r="10" fill="#ddd"/>
  <text x="55" y="275" font-family="Arial" font-size="14" fill="#666">Carlos López</text>
  <text x="250" y="275" font-family="Arial" font-size="14" fill="#666">+57 315 555 1212</text>
  <text x="450" y="275" font-family="Arial" font-size="14" fill="#666">carlos@email.com</text>

  <circle cx="740" cy="350" r="30" fill="#3880ff"/>
  <text x="740" y="360" font-family="Arial" font-size="30" text-anchor="middle" fill="#fff">+</text>
</svg>