<svg width="800" height="400" xmlns="http://www.w3.org/2000/svg">
  <rect width="100%" height="100%" fill="#f0f2f5"/>
  <rect x="20" y="20" width="760" height="60" rx="8" fill="#ffffff" stroke="#ccc" stroke-width="1"/>
  <text x="400" y="55" font-family="Arial" font-size="24" text-anchor="middle" fill="#333">Gestión de Módulos</text>

  <!-- Module Cards -->
  <rect x="50" y="120" width="200" height="200" rx="12" fill="#ffffff" stroke="#ddd" stroke-width="2"/>
  <rect x="70" y="140" width="60" height="60" rx="8" fill="#e3f2fd"/>
  <text x="70" y="240" font-family="Arial" font-size="18" font-weight="bold" fill="#333">Ropa</text>
  <text x="70" y="260" font-family="Arial" font-size="14" fill="#666">Tallas y Colores</text>
  <rect x="180" y="280" width="50" height="24" rx="12" fill="#2dd36f"/>
  <circle cx="218" cy="292" r="10" fill="#fff"/>

  <rect x="290" y="120" width="200" height="200" rx="12" fill="#ffffff" stroke="#ddd" stroke-width="2"/>
  <rect x="310" y="140" width="60" height="60" rx="8" fill="#e8f5e9"/>
  <text x="310" y="240" font-family="Arial" font-size="18" font-weight="bold" fill="#333">Farmacia</text>
  <text x="310" y="260" font-family="Arial" font-size="14" fill="#666">Vencimientos</text>
  <rect x="420" y="280" width="50" height="24" rx="12" fill="#ddd"/>
  <circle cx="432" cy="292" r="10" fill="#fff"/>

  <rect x="530" y="120" width="200" height="200" rx="12" fill="#ffffff" stroke="#ddd" stroke-width="2"/>
  <rect x="550" y="140" width="60" height="60" rx="8" fill="#fff3e0"/>
  <text x="550" y="240" font-family="Arial" font-size="18" font-weight="bold" fill="#333">Restaurante</text>
  <text x="550" y="260" font-family="Arial" font-size="14" fill="#666">Mesas y Pedidos</text>
  <rect x="660" y="280" width="50" height="24" rx="12" fill="#ddd"/>
  <circle cx="672" cy="292" r="10" fill="#fff"/>
</svg>