<svg width="800" height="400" xmlns="http://www.w3.org/2000/svg">
  <rect width="100%" height="100%" fill="#f0f2f5"/>
  <rect x="20" y="20" width="760" height="60" rx="8" fill="#ffffff" stroke="#ccc" stroke-width="1"/>
  <text x="400" y="55" font-family="Arial" font-size="24" text-anchor="middle" fill="#333">Reportes y Estadísticas</text>

  <!-- Bar Chart -->
  <rect x="20" y="100" width="450" height="280" rx="8" fill="#ffffff" stroke="#ccc" stroke-width="1"/>
  <line x1="50" y1="350" x2="440" y2="350" stroke="#999" stroke-width="2"/>
  <line x1="50" y1="350" x2="50" y2="120" stroke="#999" stroke-width="2"/>
  
  <rect x="70" y="250" width="40" height="100" fill="#3880ff"/>
  <rect x="130" y="200" width="40" height="150" fill="#3880ff"/>
  <rect x="190" y="150" width="40" height="200" fill="#3880ff"/>
  <rect x="250" y="180" width="40" height="170" fill="#3880ff"/>
  <rect x="310" y="120" width="40" height="230" fill="#3880ff"/>
  <rect x="370" y="220" width="40" height="130" fill="#3880ff"/>

  <!-- Pie Chart Area -->
  <rect x="490" y="100" width="290" height="280" rx="8" fill="#ffffff" stroke="#ccc" stroke-width="1"/>
  <circle cx="635" cy="220" r="80" fill="#ddd"/>
  <path d="M635,220 L635,140 A80,80 0 0,1 715,220 Z" fill="#3dc2ff"/>
  <path d="M635,220 L715,220 A80,80 0 0,1 635,300 Z" fill="#5260ff"/>
  <path d="M635,220 L635,300 A80,80 0 0,1 555,220 Z" fill="#2dd36f"/>
  
  <text x="635" y="340" font-family="Arial" font-size="14" text-anchor="middle" fill="#666">Ventas por Categoría</text>
</svg>