<svg width="800" height="400" xmlns="http://www.w3.org/2000/svg">
  <rect width="100%" height="100%" fill="#f0f2f5"/>
  <rect x="20" y="20" width="760" height="60" rx="8" fill="#ffffff" stroke="#ccc" stroke-width="1"/>
  <text x="400" y="55" font-family="Arial" font-size="24" text-anchor="middle" fill="#333">Gestión de Usuarios</text>

  <!-- User List Header -->
  <rect x="20" y="100" width="760" height="40" rx="4" fill="#e0e0e0" stroke="#ccc" stroke-width="1"/>
  <text x="80" y="125" font-family="Arial" font-size="14" fill="#333">Usuario</text>
  <text x="300" y="125" font-family="Arial" font-size="14" fill="#333">Rol</text>
  <text x="500" y="125" font-family="Arial" font-size="14" fill="#333">Estado</text>
  <text x="680" y="125" font-family="Arial" font-size="14" fill="#333">Acciones</text>

  <!-- User 1 -->
  <rect x="20" y="150" width="760" height="50" rx="4" fill="#ffffff" stroke="#eee" stroke-width="1"/>
  <circle cx="50" cy="175" r="15" fill="#3880ff"/>
  <text x="80" y="180" font-family="Arial" font-size="14" font-weight="bold" fill="#333">Admin</text>
  <rect x="300" y="160" width="100" height="30" rx="15" fill="#e3f2fd"/>
  <text x="350" y="180" font-family="Arial" font-size="12" text-anchor="middle" fill="#1565c0">ADMINISTRADOR</text>
  <circle cx="510" cy="175" r="5" fill="#2dd36f"/>
  <text x="525" y="180" font-family="Arial" font-size="14" fill="#666">Activo</text>

  <!-- User 2 -->
  <rect x="20" y="210" width="760" height="50" rx="4" fill="#ffffff" stroke="#eee" stroke-width="1"/>
  <circle cx="50" cy="235" r="15" fill="#999"/>
  <text x="80" y="240" font-family="Arial" font-size="14" font-weight="bold" fill="#333">Cajero 1</text>
  <rect x="300" y="220" width="100" height="30" rx="15" fill="#f5f5f5"/>
  <text x="350" y="240" font-family="Arial" font-size="12" text-anchor="middle" fill="#666">CAJERO</text>
  <circle cx="510" cy="235" r="5" fill="#2dd36f"/>
  <text x="525" y="240" font-family="Arial" font-size="14" fill="#666">Activo</text>

  <!-- Add Button -->
  <circle cx="740" cy="350" r="30" fill="#3880ff"/>
  <text x="740" y="360" font-family="Arial" font-size="30" text-anchor="middle" fill="#fff">+</text>
</svg>